***************************************************************

[IMG]http://www.hotimg.org/images/67363952943939111394.png[/IMG]

***************************************************************

[IMG]http://www.hotimg.org/images/14593969453696400585.jpg[/IMG]

***************************************************************

FILM TITLE: Immortals (2011)

***************************************************************

Genre:  Action | Drama | Fantasy   

Rated R for sequences of strong bloody violence, and a scene of sexuality

Release:   11 November 2011 (Poland)

Director: Tarsem Singh

Writer: Charley Parlapanides, Vlas Parlapanides

Stars: Henry Cavill, Mickey Rourke and John Hurt

Country: USA

Language:  English | Greek (some dialogue)

Plot:
Theseus is a mortal man chosen by Zeus to lead the fight 
against the ruthless King Hyperion, who is on a rampage 
across Greece to obtain a weapon that can destroy humanity.

IMDB Rating: 6.3/10 from 40,147 users   Metascore: 46/100
 
http://www.imdb.com/title/tt1253864/

****************************************************************

[URL=http://www.hotimg.org/viewer.php?file=06521828869695675497.png][IMG]http://www.hotimg.org/images/06521828869695675497_thumb.png[/IMG][/URL]
[URL=http://www.hotimg.org/viewer.php?file=74643820579741979693.png][IMG]http://www.hotimg.org/images/74643820579741979693_thumb.png[/IMG][/URL]
[URL=http://www.hotimg.org/viewer.php?file=26218846264763714729.png][IMG]http://www.hotimg.org/images/26218846264763714729_thumb.png[/IMG][/URL]
[URL=http://www.hotimg.org/viewer.php?file=45462029615759713325.png][IMG]http://www.hotimg.org/images/45462029615759713325_thumb.png[/IMG][/URL]
[URL=http://www.hotimg.org/viewer.php?file=07548275118887327339.png][IMG]http://www.hotimg.org/images/07548275118887327339_thumb.png[/IMG][/URL]

****************************************************************

General
Complete name                    : Immortals 2011 720p BDRip XviD ac3 (avi) [GREYSHADOW].avi
Format                           : AVI
Format/Info                      : Audio Video Interleave
Format profile                   : OpenDML
File size                        : 3.82 GiB
Duration                         : 1h 50mn
Overall bit rate                 : 4946 Kbps
Writing library                  : VirtualDub build 32842/release

Video
ID                               : 0
Format                           : MPEG-4 Visual
Format profile                   : Simple@L5
Format settings, BVOP            : No
Format settings, QPel            : No
Format settings, GMC             : No warppoints
Format settings, Matrix          : Default (H.263)
Codec ID                         : XVID
Codec ID/Hint                    : XviD
Duration                         : 1h 50mn
Bit rate                         : 4297 Kbps
Width                            : 1280 pixels
Height                           : 688 pixels
Display aspect ratio             : 1.860
Frame rate                       : 23.976 fps
Color space                      : YUV
Chroma subsampling               : 4:2:0
Bit depth                        : 8 bits
Scan type                        : Progressive
Compression mode                 : Lossy
Bits/(Pixel*Frame)               : 0.203
Stream size                      : 3.31 GiB (87%)
Writing library                  : XviD 64

Audio
ID                               : 1
Format                           : AC-3
Format/Info                      : Audio Coding 3
Mode extension                   : CM (complete main)
Codec ID                         : 2000
Duration                         : 1h 50mn
Bit rate mode                    : Constant
Bit rate                         : 640 Kbps
Channel(s)                       : 6 channels
Channel positions                : Front: L C R, Side: L R, LFE
Sampling rate                    : 48.0 KHz
Bit depth                        : 16 bits
Compression mode                 : Lossy
Stream size                      : 506 MiB (13%)
Alignment                        : Aligned on interleaves
Interleave, duration             : 42 ms (1.00 video frame)
Interleave, preload duration     : 512 ms

****************************************************************

Video Source: Immortals 2011 BluRay 1080p AVC DTS-HD MA5.1-CHDBits (46.45GB)

Thanks: chdbits.org

****************************************************************

I provide a small sample, so please download this to check your 
compatibility first if you are unsure.

****************************************************************

Hash: 6A0095EE05304C6E37A08F15E998C224AF24227A

Trackers:
.udp://tracker.1337x.org:80/announce

****************************************************************